Coordinates
version=1
nRows=6
nColumns=46
inDegrees=yes

Units are S.I. units (second, meters, Newtons, ...)
Angles are in degrees.

endheader
time	pelvis_tilt	pelvis_list	pelvis_rotation	pelvis_tx	pelvis_ty	pelvis_tz	bb_angle	bb_tx	bb_ty	bb_tz	hip_flexion_r	hip_adduction_r	hip_rotation_r	knee_angle_r	knee_angle_r_beta	ankle_angle_r	subtalar_angle_r	mtp_angle_r	crank_angle_r	hip_flexion_l	hip_adduction_l	hip_rotation_l	knee_angle_l	knee_angle_l_beta	ankle_angle_l	subtalar_angle_l	mtp_angle_l	crank_angle_l	lumbar_extension	lumbar_bending	lumbar_rotation	arm_flex_r	arm_add_r	arm_rot_r	elbow_flex_r	pro_sup_r	wrist_flex_r	wrist_dev_r	arm_flex_l	arm_add_l	arm_rot_l	elbow_flex_l	pro_sup_l	wrist_flex_l	wrist_dev_l
      7.50500000	    -26.68794721	     -8.42605359	    -10.85150993	      0.39061941	      1.22042966	     -0.22987377	      0.00000000	      0.50000000	      0.00000000	      0.25000000	     82.10454000	      1.48296315	    -11.67487008	     94.79001478	      1.65439786	    -11.41750150	     -5.35888065	      0.00000000	      0.00000000	     29.44377120	    -19.04683922	    -10.37933309	     32.04643362	      0.55931578	    -15.22709965	      0.06135581	      0.00000000	      0.00000000	    -66.15033089	      7.36633988	      9.62130890	     87.67191752	    -11.20095866	     51.95810921	     57.08160480	     56.12472972	      0.00000000	      0.00000000	     54.32011996	    -35.19925074	     18.15294440	     83.26643440	     54.21134982	      0.00000000	      0.00000000
      7.51000000	    -27.03654813	     -8.19849322	    -10.85954844	      0.39046346	      1.22266219	     -0.23023435	      0.00000000	      0.50000000	      0.00000000	      0.25000000	     81.74654181	      1.71983864	    -11.36785220	     93.08729676	      1.62467982	     -9.79531866	     -4.47504069	      0.00000000	      0.00000000	     30.91972371	    -19.06523322	     -9.70652070	     34.55428293	      0.60308601	    -16.10530135	     -0.66587391	      0.00000000	      0.00000000	    -66.38579704	      7.49909895	      9.94818732	     87.86654410	    -11.54936930	     51.52965843	     57.91497592	     56.14608944	      0.00000000	      0.00000000	     54.73002356	    -34.91794507	     18.27247738	     83.11967799	     54.22042820	      0.00000000	      0.00000000
      7.51500000	    -27.27570862	     -7.84460163	    -10.95256881	      0.39054155	      1.22509080	     -0.23025045	      0.00000000	      0.50000000	      0.00000000	      0.25000000	     81.17585930	      2.05086941	    -10.91044876	     91.25606492	      1.59271880	     -8.27410290	     -3.88317559	      0.00000000	      0.00000000	     32.27901440	    -19.04581532	     -9.30485931	     37.04204177	      0.64650559	    -17.25792491	     -1.24810564	      0.00000000	      0.00000000	    -66.74798600	      7.41023144	     10.07449596	     88.15871580	    -11.68846925	     51.19424234	     58.43430009	     56.15799050	      0.00000000	      0.00000000	     55.17284069	    -34.89245947	     17.96571778	     83.01491345	     54.17343160	      0.00000000	      0.00000000
      7.52000000	    -27.73239244	     -7.56179661	    -10.91292447	      0.39046943	      1.22690837	     -0.23059872	      0.00000000	      0.50000000	      0.00000000	      0.25000000	     80.69235924	      2.23832113	    -10.51657630	     89.30574710	      1.55867933	     -6.55506062	     -2.76884814	      0.00000000	      0.00000000	     34.06308780	    -18.99223962	     -8.44290309	     39.65466755	      0.69210451	    -18.48419122	     -1.81343005	      0.00000000	      0.00000000	    -66.84549672	      7.57400779	     10.33408400	     88.22517317	    -12.03304605	     50.67985895	     59.40199117	     56.20289701	      0.00000000	      0.00000000	     55.30617109	    -34.54473872	     17.80766111	     82.99557504	     54.16696428	      0.00000000	      0.00000000
      7.52500000	    -28.07518689	     -7.14778124	    -10.83400457	      0.39058420	      1.22878803	     -0.23106529	      0.00000000	      0.50000000	      0.00000000	      0.25000000	     79.98324349	      2.43782132	     -9.89393494	     87.24423220	      1.52269911	     -4.84239189	     -2.00528786	      0.00000000	      0.00000000	     35.74416302	    -18.75201264	     -7.68196893	     42.17747705	      0.73613584	    -19.90898464	     -2.37496230	      0.00000000	      0.00000000	    -67.10833952	      7.50725975	     10.90354153	     88.00507559	    -13.86287116	     50.11827731	     62.45977791	     56.45440710	      0.00000000	      0.00000000	     55.89356687	    -33.24781200	     17.53713100	     82.85195608	     54.18493177	      0.00000000	      0.00000000
      7.53000000	    -28.32451926	     -6.65644728	    -10.72313124	      0.39062067	      1.23050102	     -0.23129439	      0.00000000	      0.50000000	      0.00000000	      0.25000000	     79.11395250	      2.56416968	     -9.28975042	     85.10808800	      1.48541636	     -3.30632438	     -1.72339982	      0.00000000	      0.00000000	     37.37449944	    -18.44737344	     -6.97588609	     44.71388775	      0.78040456	    -21.35555531	     -2.52274115	      0.00000000	      0.00000000	    -67.30060557	      7.48312024	     10.66318533	     88.23943574	    -13.89358242	     49.84916955	     62.77454270	     56.44727300	      0.00000000	      0.00000000	     56.28946023	    -33.22489252	     17.44282853	     82.84762513	     54.17600834	      0.00000000	      0.00000000
